<?xml version="1.0" encoding="iso-8859-1"?>
<!-- Uploaded to: SVG Repo, www.svgrepo.com, Generator: SVG Repo Mixer Tools -->
<svg height="800px" width="800px" version="1.1" id="Layer_1" xmlns="http://www.w3.org/2000/svg" xmlns:xlink="http://www.w3.org/1999/xlink" 
	 viewBox="0 0 501.551 501.551" xml:space="preserve">
<path style="fill:#F2F2F2;" d="M29.257,241.347h444.082c-3.135-25.078-30.302-43.886-30.302-43.886
	c12.539-77.322-118.073-120.163-118.073-120.163c-110.759-31.347-26.122-59.559-26.122-59.559
	c-117.029-68.963-157.78,85.682-157.78,85.682c-27.167-3.135-55.38,51.2-55.38,51.2c-67.918,31.347-57.469,84.637-57.469,84.637
	C28.212,240.302,28.212,241.347,29.257,241.347z"/>
<g>
	<path style="fill:#E2E2E2;" d="M211.069,225.673c35.527,0,64.784,7.314,88.816,15.673h39.706
		c-19.853-22.988-59.559-50.155-134.792-40.751C80.457,216.269,97.176,155.665,97.176,155.665
		C19.853,224.628,122.253,224.628,211.069,225.673z"/>
	<path style="fill:#E2E2E2;" d="M189.127,166.114c119.118-28.212,229.878,70.008,229.878,70.008s3.135,2.09,7.314,5.224h26.122
		c0-7.314-4.18-19.853-16.718-41.796c-44.931-82.547-149.42-108.669-149.42-108.669c-80.457-35.527-6.269-76.278-6.269-76.278
		C156.735-17.788,163.004,120.139,163.004,120.139c-21.943,9.404-29.257-12.539-29.257-12.539S70.008,194.326,189.127,166.114z
		 M250.775,18.784c-51.2,65.829,33.437,118.073,33.437,118.073c-26.122,15.673-65.829-17.763-65.829-17.763
		C157.78,85.657,250.775,18.784,250.775,18.784z"/>
</g>
<path style="fill:#54C0EB;" d="M329.143,501.526H172.408c-15.673,0-24.033-18.808-13.584-30.302l56.424-63.739h72.098l56.424,63.739
	C353.176,482.718,344.816,501.526,329.143,501.526z"/>
<path style="fill:#84DBFF;" d="M473.339,237.167c0,16.718-2.09,33.437-5.224,49.11C446.171,385.543,357.355,459.73,250.775,459.73
	S55.38,385.543,33.437,286.277c-3.135-15.673-5.224-32.392-5.224-49.11H473.339z"/>
<path style="fill:#54C0EB;" d="M481.698,230.898H19.853C8.359,230.898,0,240.302,0,250.751c0,11.494,9.404,19.853,19.853,19.853
	h461.845c11.494,0,19.853-9.404,19.853-19.853C501.551,239.257,492.147,230.898,481.698,230.898z"/>
</svg>